<svg xmlns="http://www.w3.org/2000/svg" width="192" height="47" viewBox="0 0 192 47">
<g fill="#111820">
    <path d="M26.134 4.621l-6.871 30.213h5.662l1.208-5.757h5.658l1.049 5.757h5.87L32.105 4.621h-5.971zm.626 20.65l2.147-11.891 2.201 11.891H26.76zM55.769 20.777c-.648-.734-1.495-1.495-2.527-2.282l-5.195-3.951c-.595-.45-1.028-.935-1.301-1.449-.278-.514-.415-1.195-.415-2.04 0-.816.265-1.451.785-1.907.525-.457 1.164-.686 1.927-.686 2.134 0 2.703 1.742 2.703 5.226v.342h5.358v-.942c0-2.026-.309-3.735-.926-5.124-.609-1.389-1.517-2.434-2.708-3.131-1.195-.699-2.628-1.05-4.309-1.05-2.364 0-4.273.708-5.729 2.117-1.455 1.411-2.187 3.352-2.187 5.826 0 3.281 1.336 5.914 4.013 7.905l4.52 3.4c.992.723 1.702 1.431 2.139 2.115.436.686.653 1.508.653 2.47 0 .975-.265 1.76-.794 2.368-.525.604-1.266.909-2.214.909-2.474 0-3.224-1.802-3.224-5.405v-1.18h-5.345v1.18c0 2.106.317 3.914.957 5.422.644 1.508 1.61 2.661 2.893 3.457 1.292.798 2.867 1.202 4.723 1.202 1.76 0 3.259-.329 4.494-.986a6.455 6.455 0 0 0 2.8-2.877c.631-1.264.944-2.794.944-4.593 0-1.473-.172-2.712-.529-3.722-.351-1.011-.854-1.88-1.506-2.614zM75.314 20.777c-.653-.734-1.495-1.495-2.527-2.282l-5.195-3.951c-.595-.45-1.028-.935-1.301-1.449-.278-.514-.415-1.195-.415-2.04 0-.816.265-1.451.785-1.907.52-.457 1.164-.686 1.927-.686 2.134 0 2.703 1.742 2.703 5.226v.342h5.354v-.942c0-2.026-.309-3.735-.922-5.124-.613-1.389-1.517-2.434-2.708-3.131-1.195-.699-2.633-1.05-4.313-1.05-2.359 0-4.269.708-5.724 2.117-1.46 1.411-2.187 3.352-2.187 5.826 0 3.281 1.336 5.914 4.013 7.905l4.52 3.4c.988.723 1.702 1.431 2.139 2.115.432.686.648 1.508.648 2.47 0 .975-.265 1.76-.789 2.368-.529.604-1.266.909-2.214.909-2.478 0-3.224-1.802-3.224-5.405v-1.18h-5.349v1.18c0 2.106.322 3.914.961 5.422.639 1.508 1.605 2.661 2.893 3.457 1.288.798 2.862 1.202 4.723 1.202 1.755 0 3.259-.329 4.494-.986a6.507 6.507 0 0 0 2.8-2.877c.626-1.264.944-2.794.944-4.593 0-1.473-.176-2.712-.529-3.722-.352-1.011-.855-1.88-1.507-2.614zM81.13 4.621h5.764v30.213H81.13zM10.324 20.025c1.627-.128 4.935-.847 4.935-4.997v-.6l.296-9.808H9.728l-.296 9.808v.505c-.11 1.689-1.499 3.036-3.219 3.036-.137 0-.265-.026-.397-.04V4.621H.049L0 34.829h5.821v-3.808h-.004v-9.338c1.716.005 3.616 1.014 4.308 2.467.194.457.326.979.401 1.559.009.095.031.188.031.287 0 .137.331 8.833.331 8.833H16.7s-.296-7.814-.296-7.909c-.052-3.471-2.411-6.22-6.08-6.895zM107.493 26.896c-.053-3.466-2.408-6.211-6.072-6.888h.176c.181-.033.406-.106.644-.192 2.73-1.264 4.397-4.037 4.397-7.239 0-3.925-2.606-7.144-6.342-7.797-.785-.09-1.451-.128-1.451-.128h-7.718l-.022 30.146h5.817l-.005-13.135c1.711.007 3.616 1.016 4.309 2.467.19.457.326.979.397 1.555.009.097.031.192.031.289 0 .137.013.234.035.309 0 .04.009.068.013.11 0 .119.282 8.405.282 8.405h5.803c.002 0-.289-7.805-.294-7.902zm-7.744-9.976c-.3.329-.952.897-2.174 1.025h-.71V8.409h.604c1.226 0 2.381.666 2.866 1.508.714 1.255.653 1.962.653 3.57 0 1.619-.401 2.525-1.239 3.433z"/>
    <g>
        <path d="M186.216 4.652v24.44c-.009 1.363-1.177 2.348-2.54 2.348-1.345 0-2.483-1.019-2.531-2.348h-.009V4.652h-5.795v22.147c.009.11.013.234.013.388 0 4.591 3.726 8.311 8.313 8.311a8.311 8.311 0 0 0 8.313-8.311c0-.22.013-.392.031-.538V4.652h-5.795zM165.934 20.007h.177c.181-.033.406-.106.644-.192 2.73-1.264 4.397-4.037 4.397-7.239 0-3.925-2.606-7.144-6.342-7.797-.781-.09-1.451-.128-1.451-.128h-7.717l-.018 30.146h5.813l-.005-13.135c1.711.007 3.616 1.016 4.304 2.467.194.457.331.979.401 1.555.009.097.031.192.031.289 0 .137.013.234.035.309 0 .04.009.068.013.11 0 .119.282 8.405.282 8.405h5.799s-.291-7.806-.291-7.903c-.052-3.465-2.407-6.21-6.072-6.887zm-1.667-3.087c-.304.329-.957.897-2.179 1.025h-.71V8.409h.604c1.226 0 2.381.666 2.867 1.508.714 1.255.657 1.962.657 3.57 0 1.619-.405 2.525-1.239 3.433z"/>
    </g>
</g>
<path fill="#FFC627" d="M131.325 2.87c-9.38 0-17.009 7.634-17.009 17.014 0 6.284 3.449 11.75 8.533 14.694v-7.784c-3.638-2.946-4.935-7.109-4.957-7.175a1.403 1.403 0 0 1 2.686-.806c.106.344 2.558 8.05 10.562 8.05h.168c8.547-.112 10.575-7.667 10.659-7.986a1.405 1.405 0 0 1 1.702-1.014c.75.187 1.204.944 1.019 1.695-.018.066-1.147 4.353-4.974 7.323v7.729c5.129-2.933 8.621-8.408 8.621-14.725-.001-9.381-7.63-17.015-17.01-17.015zm-3.908 15.371a2.213 2.213 0 0 1-2.218-2.216 2.216 2.216 0 1 1 4.432 0 2.215 2.215 0 0 1-2.214 2.216zm8.485-.02a2.215 2.215 0 1 1 .003-4.43 2.215 2.215 0 0 1-.003 4.43z"/>
<path fill="#FFF" d="M124.472 27.91v16.678a2.474 2.474 0 0 1 1.984-1.017c.904 0 1.72.501 2.152 1.274h.476a2.476 2.476 0 0 1 2.152-1.274c.9 0 1.715.501 2.152 1.274h.476a2.468 2.468 0 0 1 2.148-1.274c.851 0 1.627.445 2.077 1.147V27.961c-1.777.99-3.987 1.669-6.747 1.707h-.203c-2.703-.001-4.89-.717-6.667-1.758z"/>
<g fill="#111820">
    <path d="M127.417 13.807a2.213 2.213 0 0 0-2.218 2.218 2.215 2.215 0 1 0 4.432 0 2.216 2.216 0 0 0-2.214-2.218zM135.902 13.789a2.215 2.215 0 1 0 .003 4.43 2.215 2.215 0 0 0-.003-4.43z"/>
    <path d="M131.325.065c-10.923 0-19.814 8.891-19.814 19.819 0 7.889 4.648 14.689 11.338 17.874v8.714h2.337v-.002c0-.587.41-1.059.948-1.204a.799.799 0 0 1 .648 0c.538.145.944.617.944 1.204v.002h2.24v-.002c0-.587.406-1.059.948-1.204a.799.799 0 0 1 .644 0c.543.145.948.617.948 1.204v.002h2.205v-.002c0-.604.432-1.083.992-1.213.035-.016.084-.016.124-.026.053-.005.101-.031.154-.031.005 0 .005.002.005.002.009 0 .018-.005.026-.005.128 0 .238.033.335.077.521.159.904.624.904 1.195v.002h2.461v-8.666c6.743-3.166 11.426-9.998 11.426-17.922.001-10.927-8.89-19.818-19.813-19.818zm6.765 44.654a2.475 2.475 0 0 0-2.077-1.147c-.9 0-1.716.501-2.148 1.274h-.476a2.482 2.482 0 0 0-2.152-1.274c-.904 0-1.716.501-2.152 1.274h-.476a2.47 2.47 0 0 0-2.152-1.274c-.794 0-1.526.392-1.984 1.017V27.91c1.777 1.041 3.964 1.757 6.668 1.757h.203c2.761-.037 4.97-.717 6.747-1.707v16.759zm1.622-10.11v-7.735.002c3.819-2.97 4.957-7.252 4.974-7.318a1.398 1.398 0 0 0-1.019-1.695 1.405 1.405 0 0 0-1.702 1.014c-.084.32-2.112 7.874-10.659 7.986h-.168c-8.004 0-10.456-7.706-10.562-8.05a1.402 1.402 0 0 0-2.686.806c.018.066 1.323 4.22 4.957 7.164v7.795c-5.085-2.944-8.533-8.41-8.533-14.694 0-9.38 7.629-17.014 17.009-17.014s17.009 7.634 17.009 17.014c.002 6.317-3.491 11.792-8.62 14.725z"/>
</g>
</svg>